<svg width="18" height="22" viewBox="0 0 18 22" fill="none" xmlns="http://www.w3.org/2000/svg">
<path d="M11.7894 19.8199H2.88876C1.81772 19.8199 0.946289 18.9462 0.946289 17.8722V1.94767C0.946289 0.873758 1.81772 0 2.88876 0H10.0424C10.3734 0 10.6849 0.129215 10.9192 0.363731L15.4349 4.88263C15.67 5.11775 15.7992 5.43064 15.7992 5.76363V13.6512H14.8979V5.76363C14.8979 5.6738 14.8615 5.58578 14.7981 5.52228L10.2825 1.00337C10.2183 0.939069 10.1329 0.9037 10.0424 0.9037H2.88876C2.31476 0.9037 1.84758 1.37193 1.84758 1.94767V17.8722C1.84758 18.4478 2.31456 18.9162 2.88876 18.9162H11.7894V19.8199Z" fill="#343434"/>
<path d="M15.2664 5.31131L10.417 0.448975V4.35637C10.417 4.88388 10.8435 5.31131 11.3694 5.31131H15.2662H15.2664Z" fill="#343434"/>
<path d="M0 11.7144H9.33497C9.56926 11.7144 9.75926 11.9051 9.75926 12.1398V16.4531C9.75926 16.688 9.56906 16.8785 9.33497 16.8785H0.424289C0.189998 16.8785 0 16.6878 0 16.4531V11.7144Z" fill="#E94D4B"/>
<path d="M0.952797 11.0435H0V11.7149H0.952797V11.0435Z" fill="#E94D4B"/>
<path d="M17.7397 18.4369H16.8282V15.0446C16.8282 14.8629 16.6813 14.7158 16.5003 14.7158H14.1965C14.0153 14.7158 13.8686 14.8631 13.8686 15.0446V18.4369H12.9571C12.7346 18.4369 12.6154 18.6994 12.7615 18.8678L15.0868 21.5465C15.2251 21.7059 15.472 21.7059 15.6105 21.5465L17.9357 18.8678C18.0819 18.6994 17.9626 18.4369 17.7401 18.4369H17.7397Z" fill="#E94D4B"/>
<path d="M13.6735 9.20996H3.03223V10.069H13.6735V9.20996Z" fill="#343434"/>
<path d="M13.6735 7.20093H3.03223V8.06002H13.6735V7.20093Z" fill="#343434"/>
<path d="M1.83984 13.2316H2.93073C3.16843 13.2316 3.3462 13.2883 3.46465 13.4017C3.5829 13.515 3.64222 13.6762 3.64222 13.8854C3.64222 14.0946 3.57769 14.2684 3.44882 14.3894C3.31995 14.5103 3.12313 14.571 2.85838 14.571H2.49903V15.3612H1.83984V13.2314V13.2316ZM2.49903 14.1396H2.65976C2.78623 14.1396 2.87521 14.1175 2.92632 14.0735C2.97743 14.0294 3.00308 13.973 3.00308 13.9042C3.00308 13.8355 2.98084 13.7809 2.93634 13.7342C2.89185 13.6878 2.80827 13.6645 2.68562 13.6645H2.49862V14.1396H2.49903Z" fill="white"/>
<path d="M3.99414 13.2316H4.96918C5.16139 13.2316 5.31671 13.2578 5.43496 13.31C5.55321 13.3623 5.65101 13.4374 5.72838 13.5351C5.80554 13.633 5.86166 13.7467 5.89653 13.8765C5.9314 14.0063 5.94864 14.1438 5.94864 14.2891C5.94864 14.5168 5.92278 14.6932 5.87108 14.8186C5.81937 14.944 5.74762 15.0491 5.65602 15.1339C5.56423 15.2187 5.46583 15.275 5.3604 15.3031C5.2165 15.3419 5.08603 15.3612 4.96918 15.3612H3.99414V13.2314V13.2316ZM4.65052 13.7139V14.8775H4.81125C4.94834 14.8775 5.04595 14.8622 5.10387 14.8317C5.16179 14.8011 5.20728 14.7479 5.24015 14.6719C5.27302 14.5959 5.28946 14.4726 5.28946 14.3021C5.28946 14.0765 5.25278 13.9219 5.17943 13.8387C5.10607 13.7555 4.98422 13.7137 4.81426 13.7137H4.65052V13.7139Z" fill="white"/>
<path d="M6.29688 13.2319H7.91948V13.6895H6.95606V14.0615H7.77898V14.4915H6.95606V15.3617H6.29688V13.2319Z" fill="white"/>
<path d="M0.411863 11.7145H0.926742C0.935561 11.7109 0.944179 11.707 0.952797 11.703V10.4864C0.866817 10.446 0.770816 10.4233 0.669604 10.4233C0.299828 10.4233 0 10.724 0 11.0947C0 11.3739 0.169956 11.6132 0.411663 11.7145H0.411863Z" fill="#C64342"/>
</svg>
