<svg fill="none" height="432" viewBox="0 0 1800 432" width="1800" xmlns="http://www.w3.org/2000/svg"><g fill="#000"><path d="m423.333 400.793h-100.358l-30.533-73.69h-166.447l-27.8272 73.69h-98.1678l149.957-372.0586h107.444zm-217.593-283.424-55.139 144.933h114.529z"/><path d="m785.341 28.7344h80.776v372.0586h-92.757v-231.893l-100.358 116.72h-14.171l-100.358-117.235v231.893h-92.757v-371.5436h80.776l119.425 138.3626z"/><path d="m1101.1 28.7344c135.79 0 206.13 84.5116 206.13 186.5446 0 106.928-67.64 185.514-216.05 185.514h-154.335v-372.0586zm-71.5 303.9076h60.55c93.27 0 121.1-63.255 121.1-117.878 0-64.415-34.4-117.879-122.13-117.879h-59.52z"/><path d="m1683.02 116.977h-191.82l-116.85-116.977h425.65v425.78l-116.98-116.977z"/><path d="m1491.07 308.94v-168.508l-120.33 120.326v168.637h168.51l120.33-120.455z"/></g></svg>